<?xml version="1.0" encoding="utf-8"?>
<svg viewBox="0.2218 0.2335 23.5165 23.487" width="23.5165" height="23.487" xmlns="http://www.w3.org/2000/svg">
  <path d="M 0.872 0.883 C 0.005 1.75 0.005 3.155 0.872 4.021 L 8.838 11.978 L 0.872 19.933 C 0.005 20.799 0.005 22.204 0.872 23.071 C 1.74 23.937 3.147 23.937 4.015 23.071 L 11.98 15.116 L 19.945 23.071 C 20.813 23.937 22.22 23.937 23.088 23.071 C 23.955 22.204 23.955 20.799 23.088 19.933 L 15.122 11.978 L 23.088 4.021 C 23.955 3.155 23.955 1.75 23.088 0.883 C 22.22 0.017 20.813 0.017 19.945 0.883 L 11.98 8.839 L 4.015 0.883 C 3.147 0.017 1.74 0.017 0.872 0.883 Z" fill="#0F0F0F" style=""/>
</svg>