<?xml version="1.0" encoding="utf-8"?>
<svg viewBox="0.046 0.023 31.91 31.945" width="31.91" height="31.945" xmlns="http://www.w3.org/2000/svg">
  <path d="M 22.524 9.584 C 22.53 9.584 22.538 9.584 22.547 9.584 C 22.769 9.584 22.974 9.653 23.143 9.772 L 23.14 9.77 C 23.262 9.876 23.345 10.027 23.365 10.197 L 23.365 10.2 C 23.386 10.331 23.398 10.478 23.398 10.63 C 23.398 10.699 23.396 10.766 23.39 10.835 L 23.39 10.825 C 23.152 13.338 22.118 19.431 21.592 22.244 C 21.37 23.435 20.932 23.833 20.509 23.872 C 19.588 23.958 18.889 23.262 17.997 22.678 C 16.601 21.759 15.811 21.189 14.456 20.295 C 12.89 19.264 13.905 18.694 14.797 17.767 C 15.031 17.523 19.09 13.827 19.17 13.492 C 19.174 13.472 19.176 13.448 19.176 13.425 C 19.176 13.343 19.145 13.267 19.096 13.211 C 19.04 13.175 18.971 13.154 18.9 13.154 C 18.851 13.154 18.806 13.164 18.764 13.18 L 18.766 13.179 C 18.626 13.211 16.396 14.686 12.075 17.605 C 11.603 17.978 11.008 18.214 10.36 18.242 L 10.353 18.242 C 9.435 18.13 8.601 17.925 7.809 17.634 L 7.888 17.658 C 6.894 17.334 6.105 17.163 6.173 16.615 C 6.209 16.328 6.601 16.036 7.353 15.737 C 11.977 13.719 15.061 12.39 16.605 11.748 C 18.308 10.843 20.281 10.099 22.357 9.616 L 22.523 9.583 L 22.524 9.584 Z M 15.963 0.023 C 7.169 0.044 0.046 7.187 0.046 15.996 C 0.046 24.817 7.188 31.968 16 31.968 C 24.813 31.968 31.956 24.818 31.956 15.996 C 31.956 7.187 24.833 0.044 16.04 0.023 L 16.037 0.023 C 16.014 0.023 15.988 0.023 15.963 0.023 Z" style=""/>
</svg>